<?xml version="1.0" standalone="no"?>
<!DOCTYPE svg PUBLIC "-//W3C//DTD SVG 20010904//EN"
 "http://www.w3.org/TR/2001/REC-SVG-20010904/DTD/svg10.dtd">
<svg version="1.0" xmlns="http://www.w3.org/2000/svg"
 width="565.000000pt" height="565.000000pt" viewBox="0 0 565.000000 565.000000"
 preserveAspectRatio="xMidYMid meet">
<metadata>
Created by potrace 1.14, written by Peter Selinger 2001-2017
</metadata>
<g transform="translate(0.000000,565.000000) scale(0.100000,-0.100000)"
fill="#000000" stroke="none">
<path d="M5060 3531 c-20 -4 -57 -17 -83 -30 -159 -77 -216 -282 -118 -427 43
-64 93 -101 174 -129 51 -17 63 -18 117 -7 34 7 78 22 98 33 46 25 132 117
132 141 0 10 4 18 8 18 5 0 9 6 9 13 1 6 4 34 8 60 6 34 3 67 -10 113 -38 141
-198 243 -335 215z m108 -146 c46 -20 79 -57 92 -104 12 -45 12 -47 -1 -94
-20 -73 -101 -126 -175 -114 -148 24 -178 245 -41 307 51 24 77 25 125 5z"/>
<path d="M267 3503 c-4 -3 -7 -37 -7 -74 0 -61 2 -67 23 -73 12 -3 161 -6 331
-6 l308 0 -18 -27 c-23 -36 3 -9 -319 -335 l-280 -283 155 -6 c176 -7 231 -20
354 -80 242 -117 400 -348 435 -632 l6 -52 69 0 69 0 18 100 c42 239 132 382
344 542 27 21 119 64 190 89 74 26 91 28 235 29 138 0 163 -3 230 -25 80 -26
161 -66 225 -111 165 -116 295 -321 319 -504 4 -27 9 -67 12 -87 l6 -38 72 0
72 0 12 94 c23 180 87 312 220 450 91 95 245 180 379 210 102 23 268 21 367
-4 237 -60 445 -243 534 -471 27 -66 35 -103 57 -241 l6 -38 71 0 71 0 -6 83
c-7 93 -44 233 -83 310 -124 244 -320 412 -579 493 -83 26 -102 29 -255 29
-183 0 -264 -14 -378 -67 -196 -90 -315 -197 -439 -391 -56 -88 -48 -89 -113
18 -48 80 -45 77 -137 170 -76 78 -87 87 -158 131 -172 107 -308 144 -523 144
-128 0 -142 2 -134 16 5 9 137 145 294 302 157 158 291 298 298 311 6 13 7 21
2 17 -6 -3 -13 -2 -17 4 -3 5 -40 10 -82 10 l-76 0 -448 -447 c-512 -511 -565
-568 -632 -692 -35 -65 -42 -66 -73 -13 -102 174 -232 302 -393 385 -60 31
-136 63 -168 73 -32 9 -62 20 -67 25 -6 5 114 133 297 317 169 170 307 314
307 320 0 7 -12 17 -26 22 -28 11 -967 14 -977 3z"/>
</g>
</svg>
